HIERARCHY
ROOT RootJoint
{
    OFFSET   0.000000   0.000000   0.000000
    CHANNELS 6 Xposition Yposition Zposition Xrotation Yrotation Zrotation
    JOINT pelvis_lowerback
    {
        OFFSET   0.000000   0.093605   0.000000
        CHANNELS 3 Xrotation Yrotation Zrotation
        JOINT lowerback_torso
        {
            OFFSET   0.000000   0.100000   0.000000
            CHANNELS 3 Xrotation Yrotation Zrotation
            JOINT torso_head
            {
                OFFSET   0.000000   0.282350   0.000000
                CHANNELS 3 Xrotation Yrotation Zrotation
                End Site
                {
                    OFFSET   0.000000   0.192650   0.000000
                }
            }
            JOINT rTorso_Clavicle
            {
                OFFSET  -0.001000   0.157500   0.000000
                CHANNELS 3 Xrotation Yrotation Zrotation
                JOINT rShoulder
                {
                    OFFSET  -0.117647   0.000000   0.000000
                    CHANNELS 3 Xrotation Yrotation Zrotation
                    JOINT rElbow
                    {
                        OFFSET  -0.245000   0.000000   0.000000
                        CHANNELS 3 Xrotation Yrotation Zrotation
                        JOINT rWrist
                        {
                            OFFSET  -0.240000   0.000000   0.000000
                            CHANNELS 3 Xrotation Yrotation Zrotation
                            End Site
                            {
                                OFFSET  -0.116353  -0.002500   0.000000
                            }
                        }
                    }
                }
            }
            JOINT lTorso_Clavicle
            {
                OFFSET   0.001000   0.157500   0.000000
                CHANNELS 3 Xrotation Yrotation Zrotation
                JOINT lShoulder
                {
                    OFFSET   0.117647   0.000000   0.000000
                    CHANNELS 3 Xrotation Yrotation Zrotation
                    JOINT lElbow
                    {
                        OFFSET   0.245000   0.000000   0.000000
                        CHANNELS 3 Xrotation Yrotation Zrotation
                        JOINT lWrist
                        {
                            OFFSET   0.240000   0.000000   0.000000
                            CHANNELS 3 Xrotation Yrotation Zrotation
                            End Site
                            {
                                OFFSET   0.116353  -0.002500   0.000000
                            }
                        }
                    }
                }
            }
        }
    }
    JOINT rHip
    {
        OFFSET  -0.100000  -0.051395   0.000000
        CHANNELS 3 Xrotation Yrotation Zrotation
        JOINT rKnee
        {
            OFFSET   0.000000  -0.410000   0.000000
            CHANNELS 3 Xrotation Yrotation Zrotation
            JOINT rAnkle
            {
                OFFSET   0.000000  -0.390000   0.000000
                CHANNELS 3 Xrotation Yrotation Zrotation
                JOINT rToeJoint
                {
                    OFFSET   0.000000  -0.050000   0.130000
                    CHANNELS 3 Xrotation Yrotation Zrotation
                    End Site
                    {
                        OFFSET  -0.010000   0.002000   0.060000
                    }
                }
            }
        }
    }
    JOINT lHip
    {
        OFFSET   0.100000  -0.051395   0.000000
        CHANNELS 3 Xrotation Yrotation Zrotation
        JOINT lKnee
        {
            OFFSET   0.000000  -0.410000   0.000000
            CHANNELS 3 Xrotation Yrotation Zrotation
            JOINT lAnkle
            {
                OFFSET   0.000000  -0.390000   0.000000
                CHANNELS 3 Xrotation Yrotation Zrotation
                JOINT lToeJoint
                {
                    OFFSET   0.000000  -0.050000   0.130000
                    CHANNELS 3 Xrotation Yrotation Zrotation
                    End Site
                    {
                        OFFSET   0.010000   0.002000   0.060000
                    }
                }
            }
        }
    }
}
MOTION
Frames: 17
Frame Time:   0.008333
 -2.376719   0.925631   3.975860   0.000000   0.000000   0.000000   0.000000   0.000000   0.000000   0.000000   0.000000   0.000000   0.000000   0.000000   0.000000   0.000000   0.000000   0.000000   0.000000   0.000000   0.000000   0.000000   0.000000   0.000000   0.000000   0.000000   0.000000   0.000000   0.000000   0.000000   0.000000   0.000000   0.000000   0.000000   0.000000   0.000000   0.000000   0.000000   0.000000   0.000000   0.000000   0.000000   0.000000   0.000000   0.000000   0.000000   0.000000   0.000000   0.000000   0.000000   0.000000   0.000000   0.000000   0.000000   0.000000   0.000000   0.000000   0.000000   0.000000   0.000000   0.000000   0.000000   0.000000
 -2.376970   0.926169   3.974136   0.490668  -0.217208  -0.016320  -0.336517   0.090678  -0.168839   0.184289  -0.157377   0.107618  -0.397135  -0.056387   0.166902   0.244997  -0.532520   0.718347   1.067132   0.484774   1.811263   0.065807   3.006133  -0.044683   0.194550  -1.470214  -2.815942   0.373847   0.675791  -0.151728   1.579956   0.558639  -1.981853   0.058448  -2.959489   0.060331   0.230721   0.732957   2.452767  -1.581659  -0.306236   0.097543   3.180052  -0.002627  -0.014422  -2.832070   0.101710  -0.037472  -0.025354   0.000006   0.000093  -1.549313  -0.177801  -0.012309   2.109702   0.000434  -0.007277  -1.182998   0.276280   0.024791   0.455685   0.000040  -0.000470
 -2.377213   0.927003   3.972305   0.821265  -0.544399  -0.052830  -0.550125   0.227846  -0.337391   0.477616  -0.240752   0.246869  -0.743470  -0.123347   0.316067   0.486597  -0.884038   2.165089   2.078749   1.169623   4.210901   0.155829   5.941624  -0.080023   0.441156  -2.013471  -4.950918   0.750012   1.285729  -0.938521   3.156524   0.999125  -4.491886   0.136843  -5.801846   0.108184   0.544966   0.737096   4.317320  -2.953600  -0.617301   0.241849   6.678097  -0.007651  -0.030361  -5.474412   0.196283  -0.066689  -0.141457   0.000069   0.000622  -3.095797  -0.356264  -0.053739   4.254615   0.001201  -0.015352  -2.278986   0.533424   0.054252   0.867335   0.000215  -0.001269
 -2.377380   0.927733   3.970532   1.083539  -0.933588  -0.100250  -0.713167   0.408141  -0.478492   0.793591  -0.260150   0.404991  -1.057628  -0.188341   0.445817   0.715066  -1.080955   4.034210   3.027224   1.993826   6.988930   0.246356   8.718787  -0.104628   0.693191  -2.186634  -6.241841   1.109608   1.787166  -2.127813   4.727240   1.310058  -7.355086   0.215280  -8.473492   0.142732   0.865685   0.515978   5.457401  -4.126212  -0.914915   0.405272  10.239029  -0.014053  -0.044167  -7.936745   0.285710  -0.089998  -0.241861   0.000126   0.001013  -4.649998  -0.524084  -0.132037   6.247535   0.002080  -0.022152  -3.301640   0.771666   0.086540   1.243662   0.000471  -0.002074
 -2.377467   0.928081   3.968913   1.321720  -1.356274  -0.153642  -0.857809   0.619326  -0.586740   1.095157  -0.232739   0.579093  -1.349702  -0.249626   0.561968   0.929752  -1.169435   6.133408   3.912557   2.930169  10.018209   0.326287  11.331408  -0.120517   0.942254  -2.183684  -6.887428   1.449777   2.201977  -3.554521   6.296502   1.496171 -10.459102   0.284338 -10.978582   0.166324   1.181107   0.199555   6.039032  -5.090101  -1.197096   0.576366  13.657607  -0.020627  -0.054128 -10.231597   0.370249  -0.108809  -0.329504   0.000172   0.001273  -6.226548  -0.678864  -0.243344   8.069683   0.002920  -0.027224  -4.258280   0.992596   0.120569   1.580552   0.000747  -0.002734
 -2.377489   0.927845   3.967486   1.552138  -1.810864  -0.209123  -0.994313   0.857067  -0.663036   1.369640  -0.166171   0.766916  -1.623201  -0.306956   0.668186   1.129181  -1.184144   8.339324   4.732669   3.957324  13.215572   0.390969  13.781330  -0.129736   1.182621  -2.093661  -7.083539   1.768928   2.556609  -5.105710   7.864404   1.569306 -13.724969   0.339990 -13.322753   0.181207   1.484981  -0.155710   6.231952  -5.868158  -1.462454   0.749302  16.894431  -0.026725  -0.060772 -12.372488   0.450172  -0.123759  -0.412879   0.000212   0.001469  -7.820229  -0.818588  -0.380976   9.729934   0.003627  -0.030837  -5.153458   1.197768   0.155673   1.881516   0.001003  -0.003250
 -2.377473   0.926869   3.966268   1.778840  -2.295220  -0.262560  -1.126309   1.117190  -0.712563   1.615630  -0.065288   0.961784  -1.879099  -0.360661   0.767799   1.313444  -1.152610  10.573890   5.485246   5.056714  16.528121   0.439321  16.073226  -0.133978   1.409854  -1.968561  -6.975736   2.069180   2.875625  -6.719330   9.405167   1.541353 -17.053542   0.380761 -15.512116   0.188825   1.772586  -0.513751   6.141610  -6.484119  -1.711038   0.920013  19.953212  -0.032086  -0.064822 -14.370300   0.525509  -0.135492  -0.493557   0.000246   0.001622  -9.418989  -0.943060  -0.538507  11.242950   0.004145  -0.033256  -5.990992   1.388363   0.191253   2.150907   0.001218  -0.003636
 -2.377452   0.924563   3.964636   1.858164  -2.614765  -0.144202  -1.041262   1.322605  -1.005835   2.020263   0.094722   1.187217  -2.410807  -0.234508   0.715970   1.518491  -0.955467  12.371123   6.319303   6.167232  19.593012   0.479279  18.573538  -0.151571   1.548488  -2.057092  -5.842488   2.340457   3.094424  -7.917225  11.017144   1.195605 -20.146193   0.423504 -18.091404   0.209709   1.882923  -0.600755   5.238165  -6.590483  -1.912904   0.886069  21.962806  -0.031768  -0.059235 -16.496664   0.526669  -0.231258  -0.360138   0.000201   0.000688 -11.378782  -0.986216  -0.892367  13.987435   0.005907  -0.037561  -7.202734   1.420168   0.197021   2.274856   0.001197  -0.003344
 -2.377453   0.921068   3.962892   1.915906  -3.023592   0.018012  -0.902005   1.604056  -1.325992   2.439288   0.320425   1.360640  -2.903414  -0.105118   0.653869   1.659554  -0.651652  13.933767   7.019238   7.328294  22.367100   0.495714  20.949159  -0.163943   1.721604  -1.949849  -4.707943   2.570169   3.226240  -8.916216  12.481733   0.741629 -22.936176   0.444350 -20.539404   0.221395   2.022429  -0.907796   4.375880  -6.610813  -2.078743   0.805062  23.728398  -0.030984  -0.054698 -18.491711   0.531525  -0.320764  -0.266670   0.000168   0.000077 -13.329105  -0.994325  -1.259058  16.681738   0.006071  -0.042773  -8.325369   1.450520   0.202819   2.395307   0.001147  -0.003186
 -2.377490   0.916471   3.961183   1.974012  -3.473311   0.189039  -0.742923   1.915792  -1.645360   2.839480   0.582714   1.500242  -3.354755   0.017514   0.594289   1.740919  -0.295083  15.311494   7.598333   8.494456  24.890772   0.495188  23.192473  -0.170602   1.908924  -1.708231  -3.730372   2.769642   3.320791  -9.774491  13.815484   0.240914 -25.472783   0.448798 -22.836409   0.224789   2.164956  -1.287669   3.653334  -6.587016  -2.232519   0.715123  25.359565  -0.030124  -0.050859 -20.354832   0.538549  -0.404464  -0.182281   0.000139  -0.000388 -15.228726  -0.990476  -1.601237  19.191798   0.004919  -0.047033  -9.372302   1.478739   0.208764   2.509107   0.001067  -0.003079
 -2.377557   0.910841   3.959593   2.035299  -3.926466   0.359003  -0.579454   2.236860  -1.958525   3.213076   0.861570   1.614914  -3.770938   0.132561   0.539330   1.778629   0.075220  16.538495   8.076399   9.633055  27.199840   0.482781  25.302169  -0.172380   2.097565  -1.390575  -2.900216   2.949409   3.402735 -10.524600  15.034798  -0.276639 -27.792633   0.441520 -24.983723   0.221676   2.300798  -1.674347   3.045040  -6.523424  -2.377260   0.626431  26.882970  -0.029131  -0.047190 -22.093681   0.547356  -0.483119  -0.103927   0.000115  -0.000722 -17.065011  -0.978030  -1.914208  21.514862   0.003116  -0.049520 -10.350134   1.505051   0.214604   2.611894   0.000966  -0.002950
 -2.377648   0.904231   3.958155   2.098667  -4.362187   0.524410  -0.419281   2.557184  -2.263490   3.559962   1.145256   1.709079  -4.156499   0.240335   0.488997   1.787400   0.436323  17.639641   8.471581  10.724585  29.322412   0.462316  27.280212  -0.170329   2.280639  -1.037928  -2.188125   3.117369   3.484741 -11.188185  16.153776  -0.793624 -29.923284   0.426056 -26.986943   0.213776   2.427061  -2.039514   2.520697  -6.423593  -2.513306   0.542413  28.311038  -0.027960  -0.043486 -23.716261   0.557695  -0.557227  -0.030842   0.000093  -0.000944 -18.830225  -0.958056  -2.200363  23.664871   0.001166  -0.050200 -11.263538   1.529714   0.220166   2.704255   0.000858  -0.002785
 -2.377599   0.898363   3.956876   2.158113  -4.833523   0.984921  -0.240533   2.896508  -2.793896   3.901490   1.441877   1.684615  -4.519045   0.341824   0.434589   1.773380   0.799979  18.750291   8.794000  11.773251  31.322559   0.438596  29.123645  -0.165542   2.455175  -0.704334  -1.574855   3.269764   3.560572 -11.856355  17.176774  -1.307359 -31.895405   0.406652 -28.840001   0.203237   2.540029  -2.307523   2.090868  -6.308109  -2.602746   0.175890  29.612021  -0.026850  -0.040133 -25.225821   0.567753  -0.628127   0.067055   0.000068  -0.001264 -20.552944  -0.917828  -2.690327  26.704475  -0.004077  -0.057445 -11.681500   1.541591   0.241390   2.759472   0.000673  -0.002540
 -2.376950   0.893003   3.955494   2.296578  -5.272480   1.597636  -0.051755   3.138691  -3.284746   4.258216   1.685328   1.611866  -4.896236   0.344757   0.103204   1.860854   1.380011  19.221525   9.071115  12.858865  32.992587   0.419116  31.218408  -0.171448   2.501394  -0.516608  -0.349164   3.458510   3.736338 -12.200736  18.296920  -1.809319 -33.616556   0.395515 -31.146601   0.205008   2.506086  -2.574100   0.965301  -5.895568  -2.468291  -0.446858  29.365117  -0.021078  -0.031446 -26.210428   0.652965  -0.921743   0.419845   0.001160  -0.001926 -21.981255  -0.751489  -3.339889  29.021833  -0.006360  -0.057454 -12.149851   1.410064   0.183205   2.831594   0.000592  -0.002482
 -2.376059   0.887992   3.953700   2.539201  -5.678959   2.217309   0.166668   3.354526  -3.686965   4.571147   1.912580   1.530434  -5.244432   0.341673  -0.218561   1.853084   1.958902  19.379086   9.265521  13.896813  34.362467   0.392021  33.204854  -0.173619   2.558975  -0.179829   0.657571   3.619267   3.888265 -12.332359  19.321011  -2.296576 -35.099389   0.373398 -33.325844   0.202348   2.480277  -3.027609  -0.054092  -5.615903  -2.310530  -1.137082  28.862305  -0.016542  -0.023825 -27.132866   0.736841  -1.196868   0.785296   0.002257  -0.002346 -23.362990  -0.541347  -3.980429  30.996215  -0.007538  -0.054861 -12.653021   1.291223   0.115641   2.882816   0.000521  -0.002276
 -2.375117   0.883302   3.951647   2.823555  -6.023722   2.798352   0.421540   3.542010  -4.014464   4.869348   2.118234   1.472222  -5.560754   0.339588  -0.512573   1.785184   2.508993  19.340905   9.399777  14.864896  35.506893   0.361807  35.068699  -0.172473   2.619577   0.201209   1.357796   3.752369   4.017968 -12.310951  20.257296  -2.756091 -36.376653   0.344892 -35.362569   0.195748   2.453987  -3.498988  -0.857978  -5.427185  -2.157249  -1.823559  28.316059  -0.013249  -0.017768 -27.995646   0.818298  -1.453645   1.122303   0.003096  -0.002460 -24.685052  -0.321723  -4.568700  32.737273  -0.008048  -0.050706 -13.160279   1.181395   0.049119   2.921347   0.000451  -0.002015
 -2.375091   0.881868   3.950871   2.843055  -6.153441   2.510359   0.718495   3.649487  -3.734997   5.256409   2.283523   1.730685  -5.842142   0.337670  -0.749257   1.742228   2.985766  19.303978   9.535852  15.701510  36.485943   0.331435  36.753104  -0.167148   2.686281   0.384166   1.799832   3.868940   4.140626 -12.388851  21.114823  -3.197370 -37.558798   0.316769 -37.237221   0.184629   2.433189  -3.814444  -1.469044  -5.823275  -2.230942  -1.567270  29.347922  -0.011470  -0.015593 -28.612906   0.867528  -1.654799   1.532188   0.003260  -0.002494 -25.241525  -0.418298  -4.289987  33.752613  -0.007681  -0.041594 -13.831487   1.048071   0.043427   2.982703   0.000345  -0.001758
